<svg xmlns="http://www.w3.org/2000/svg" xmlns:xlink="http://www.w3.org/1999/xlink" width="500" zoomAndPan="magnify" viewBox="0 0 375 374.999991" height="500" preserveAspectRatio="xMidYMid meet" version="1.0"><defs><g/><clipPath id="id1"><path d="M 87.53125 7.1875 L 287.375 7.1875 L 287.375 202 L 87.53125 202 Z M 87.53125 7.1875 " clip-rule="nonzero"/></clipPath></defs><g clip-path="url(#id1)"><path fill="rgb(0%, 0%, 0%)" d="M 119.519531 199.3125 L 119.519531 83.929688 L 187.453125 44.707031 L 255.390625 83.929688 L 255.390625 162.375 L 219.441406 183.121094 L 251.429688 201.597656 L 287.375 180.855469 L 287.375 65.476562 L 237.402344 36.609375 L 187.453125 7.773438 L 137.480469 36.609375 L 87.53125 65.476562 L 87.53125 180.855469 Z M 119.519531 199.3125 " fill-opacity="1" fill-rule="evenodd"/></g><path fill="rgb(0%, 0%, 0%)" d="M 151.507812 180.855469 L 151.507812 217.789062 L 187.453125 238.535156 L 219.441406 220.078125 L 187.453125 201.597656 Z M 151.507812 180.855469 " fill-opacity="1" fill-rule="evenodd"/><path fill="rgb(0%, 0%, 0%)" d="M 151.507812 143.898438 L 177.613281 158.980469 L 187.453125 164.664062 L 223.402344 143.898438 L 223.402344 102.410156 L 187.453125 81.667969 L 151.507812 102.410156 Z M 151.507812 143.898438 " fill-opacity="1" fill-rule="evenodd"/><path fill="rgb(34.509277%, 74.899292%, 17.248535%)" d="M 187.453125 123.152344 L 223.402344 102.410156 L 187.453125 81.667969 L 151.507812 102.410156 Z M 187.453125 123.152344 " fill-opacity="1" fill-rule="evenodd"/><path fill="rgb(1.179504%, 39.219666%, 17.248535%)" d="M 223.402344 102.410156 L 187.453125 123.152344 L 187.453125 164.664062 L 223.402344 143.898438 Z M 223.402344 102.410156 " fill-opacity="1" fill-rule="evenodd"/><path fill="rgb(0%, 18.818665%, 8.239746%)" d="M 187.609375 130.140625 L 187.609375 124.089844 L 154.152344 124.089844 L 154.152344 142.933594 L 187.609375 142.933594 L 187.609375 130.140625 M 154.152344 142.933594 L 187.609375 163.234375 L 187.609375 142.933594 L 154.152344 142.933594 M 154.152344 103.785156 L 187.609375 103.785156 L 187.609375 124.089844 L 154.152344 124.089844 L 154.152344 103.785156 " fill-opacity="1" fill-rule="nonzero"/><path fill="rgb(0%, 50.19989%, 21.569824%)" d="M 187.609375 124.089844 L 187.609375 142.933594 L 221.070312 142.933594 L 221.070312 124.089844 L 187.609375 124.089844 M 187.609375 103.785156 L 221.070312 103.785156 L 221.070312 124.089844 L 187.609375 124.089844 L 187.609375 103.785156 M 187.609375 163.234375 L 221.070312 142.933594 L 187.609375 142.933594 L 187.609375 163.234375 " fill-opacity="1" fill-rule="nonzero"/><path fill="rgb(49.409485%, 85.099792%, 34.118652%)" d="M 187.609375 124.089844 L 154.152344 103.785156 L 187.609375 83.480469 L 221.070312 103.785156 L 187.609375 124.089844 " fill-opacity="1" fill-rule="nonzero"/><g fill="rgb(0%, 0%, 0%)" fill-opacity="1"><g transform="translate(-1.043161, 312.179854)"><g><path d="M 4.828125 0 L 18 0 L 18 -12.980469 L 22.957031 -12.980469 L 29.480469 0 L 44.414062 0 L 36 -15.390625 C 40.828125 -18.066406 43.566406 -22.890625 43.566406 -29.28125 C 43.566406 -39.390625 36.71875 -45.652344 25.632812 -45.652344 L 4.828125 -45.652344 Z M 17.738281 -23.480469 L 17.738281 -34.890625 L 23.871094 -34.890625 C 28.042969 -34.890625 30.328125 -32.871094 30.328125 -29.21875 C 30.328125 -25.566406 28.042969 -23.480469 23.871094 -23.480469 Z M 17.738281 -23.480469 "/></g></g></g><g fill="rgb(0%, 0%, 0%)" fill-opacity="1"><g transform="translate(65.212997, 312.179854)"><g><path d="M 0.324219 0 L 14.28125 0 L 16.761719 -6.457031 L 32.347656 -6.457031 L 34.828125 0 L 48.847656 0 L 31.109375 -45.652344 L 18.066406 -45.652344 Z M 19.5 -16.109375 L 24.585938 -30.261719 L 29.675781 -16.109375 Z M 19.5 -16.109375 "/></g></g></g><g fill="rgb(0%, 0%, 0%)" fill-opacity="1"><g transform="translate(133.686126, 312.179854)"><g><path d="M 4.828125 0 L 18 0 L 18 -17.28125 L 23.738281 -17.28125 L 32.480469 0 L 47.738281 0 L 35.738281 -22.175781 C 37.109375 -23.804688 38.347656 -25.957031 39.390625 -28.632812 L 46.175781 -45.652344 L 31.890625 -45.652344 L 27.78125 -34.238281 C 26.414062 -30.261719 24.914062 -29.28125 20.21875 -29.28125 L 18 -29.28125 L 18 -45.652344 L 4.828125 -45.652344 Z M 4.828125 0 "/></g></g></g><g fill="rgb(0%, 0%, 0%)" fill-opacity="1"><g transform="translate(202.289656, 312.179854)"><g><path d="M 4.828125 0 L 36.847656 0 L 36.847656 -10.761719 L 17.871094 -10.761719 L 17.871094 -17.804688 L 34.371094 -17.804688 L 34.371094 -28.371094 L 17.871094 -28.371094 L 17.871094 -35.023438 L 36.132812 -35.023438 L 36.132812 -45.652344 L 4.828125 -45.652344 Z M 4.828125 0 "/></g></g></g><g fill="rgb(0%, 0%, 0%)" fill-opacity="1"><g transform="translate(261.373241, 312.179854)"><g><path d="M 4.828125 0 L 17.871094 0 L 17.871094 -23.28125 L 35.21875 0 L 45.914062 0 L 45.914062 -45.652344 L 32.933594 -45.652344 L 32.933594 -22.5 L 15.585938 -45.652344 L 4.828125 -45.652344 Z M 4.828125 0 "/></g></g></g><g fill="rgb(0%, 0%, 0%)" fill-opacity="1"><g transform="translate(331.476493, 312.179854)"><g><path d="M 15.71875 0 L 28.828125 0 L 28.828125 -33.457031 L 42.71875 -33.457031 L 42.71875 -45.652344 L 1.824219 -45.652344 L 1.824219 -33.457031 L 15.71875 -33.457031 Z M 15.71875 0 "/></g></g></g><g fill="rgb(0%, 0%, 0%)" fill-opacity="1"><g transform="translate(1.276323, 367.295624)"><g><path d="M 19.863281 0.574219 C 28.175781 0.574219 34.886719 -3.355469 34.886719 -11.519531 C 34.886719 -20.164062 27.117188 -22.160156 20.253906 -23.972656 C 14.722656 -25.394531 9.886719 -26.726562 9.886719 -31.472656 C 9.886719 -36.488281 14.359375 -38.453125 18.773438 -38.453125 C 23.703125 -38.453125 27.875 -36.277344 29.171875 -31.5 L 34.222656 -32.800781 C 32.621094 -39.9375 26.058594 -43.140625 18.5625 -43.140625 C 11.003906 -43.140625 4.445312 -39.242188 4.445312 -31.378906 C 4.445312 -23.519531 11.035156 -21.496094 17.6875 -19.710938 C 23.609375 -18.109375 29.265625 -16.71875 29.355469 -11.367188 C 29.445312 -6.015625 24.761719 -4.082031 19.953125 -4.082031 C 14.179688 -4.082031 9.796875 -6.921875 8.496094 -11.972656 L 3.175781 -10.703125 C 4.625 -3.65625 11.003906 0.574219 19.863281 0.574219 Z M 19.863281 0.574219 "/></g></g></g><g fill="rgb(0%, 0%, 0%)" fill-opacity="1"><g transform="translate(58.023215, 367.295624)"><g><path d="M 28.933594 -42.566406 L 1.691406 -42.566406 L 1.691406 -37.640625 L 12.636719 -37.640625 L 12.636719 0 L 18.019531 0 L 18.019531 -37.640625 L 28.933594 -37.640625 Z M 28.933594 -42.566406 "/></g></g></g><g fill="rgb(0%, 0%, 0%)" fill-opacity="1"><g transform="translate(106.971282, 367.295624)"><g><path d="M 21.253906 0.574219 C 30.050781 0.574219 36.792969 -4.746094 36.792969 -14.117188 L 36.792969 -42.566406 L 31.378906 -42.566406 L 31.378906 -14.875 C 31.378906 -7.800781 26.90625 -4.351562 21.253906 -4.351562 C 15.601562 -4.351562 11.214844 -7.738281 11.214844 -14.875 L 11.214844 -42.566406 L 5.804688 -42.566406 L 5.804688 -14.117188 C 5.804688 -4.746094 12.515625 0.574219 21.253906 0.574219 Z M 21.253906 0.574219 "/></g></g></g><g fill="rgb(0%, 0%, 0%)" fill-opacity="1"><g transform="translate(167.889631, 367.295624)"><g><path d="M 6.679688 0 L 20.40625 0 C 33.40625 0 40.058594 -8.828125 40.058594 -21.3125 C 40.058594 -33.738281 33.40625 -42.566406 20.40625 -42.566406 L 6.679688 -42.566406 Z M 12.09375 -4.929688 L 12.09375 -37.640625 L 20.226562 -37.640625 C 29.839844 -37.640625 34.433594 -31.167969 34.433594 -21.3125 C 34.433594 -11.367188 29.839844 -4.929688 20.226562 -4.929688 Z M 12.09375 -4.929688 "/></g></g></g><g fill="rgb(0%, 0%, 0%)" fill-opacity="1"><g transform="translate(230.107785, 367.295624)"><g><path d="M 6.679688 0 L 12.09375 0 L 12.09375 -42.566406 L 6.679688 -42.566406 Z M 6.679688 0 "/></g></g></g><g fill="rgb(0%, 0%, 0%)" fill-opacity="1"><g transform="translate(267.206482, 367.295624)"><g><path d="M 24.910156 0.574219 C 36.792969 0.574219 46.042969 -7.679688 46.042969 -21.3125 C 46.042969 -34.886719 36.792969 -43.140625 24.910156 -43.140625 C 12.910156 -43.140625 3.71875 -34.886719 3.71875 -21.3125 C 3.71875 -7.679688 12.910156 0.574219 24.910156 0.574219 Z M 24.910156 -4.535156 C 16.082031 -4.535156 9.101562 -10.582031 9.101562 -21.3125 C 9.101562 -31.925781 16.082031 -37.972656 24.910156 -37.972656 C 33.679688 -37.972656 40.632812 -31.925781 40.632812 -21.3125 C 40.632812 -10.582031 33.679688 -4.535156 24.910156 -4.535156 Z M 24.910156 -4.535156 "/></g></g></g><g fill="rgb(0%, 0%, 0%)" fill-opacity="1"><g transform="translate(335.288868, 367.295624)"><g><path d="M 19.863281 0.574219 C 28.175781 0.574219 34.886719 -3.355469 34.886719 -11.519531 C 34.886719 -20.164062 27.117188 -22.160156 20.253906 -23.972656 C 14.722656 -25.394531 9.886719 -26.726562 9.886719 -31.472656 C 9.886719 -36.488281 14.359375 -38.453125 18.773438 -38.453125 C 23.703125 -38.453125 27.875 -36.277344 29.171875 -31.5 L 34.222656 -32.800781 C 32.621094 -39.9375 26.058594 -43.140625 18.5625 -43.140625 C 11.003906 -43.140625 4.445312 -39.242188 4.445312 -31.378906 C 4.445312 -23.519531 11.035156 -21.496094 17.6875 -19.710938 C 23.609375 -18.109375 29.265625 -16.71875 29.355469 -11.367188 C 29.445312 -6.015625 24.761719 -4.082031 19.953125 -4.082031 C 14.179688 -4.082031 9.796875 -6.921875 8.496094 -11.972656 L 3.175781 -10.703125 C 4.625 -3.65625 11.003906 0.574219 19.863281 0.574219 Z M 19.863281 0.574219 "/></g></g></g></svg>