<svg xmlns="http://www.w3.org/2000/svg" xmlns:xlink="http://www.w3.org/1999/xlink" width="500" zoomAndPan="magnify" viewBox="0 0 375 374.999991" height="500" preserveAspectRatio="xMidYMid meet" version="1.0"><defs><clipPath id="id1"><path d="M 44.503906 22 L 330.367188 22 L 330.367188 300 L 44.503906 300 Z M 44.503906 22 " clip-rule="nonzero"/></clipPath></defs><path fill="rgb(100%, 100%, 100%)" d="M 44.503906 104.804688 L 44.503906 269.800781 L 187.378906 352.414062 L 330.253906 269.800781 L 330.253906 104.804688 L 187.378906 22.417969 L 44.503906 104.804688 " fill-opacity="1" fill-rule="nonzero"/><g clip-path="url(#id1)"><path fill="rgb(0%, 0%, 0%)" d="M 90.257812 296.371094 L 90.257812 131.328125 L 187.433594 75.21875 L 284.609375 131.328125 L 284.609375 243.539062 L 233.191406 273.210938 L 278.945312 299.644531 L 330.367188 269.972656 L 330.367188 104.925781 L 258.882812 63.640625 L 187.433594 22.386719 L 115.953125 63.640625 L 44.503906 104.925781 L 44.503906 269.972656 Z M 90.257812 296.371094 " fill-opacity="1" fill-rule="evenodd"/></g><path fill="rgb(0%, 0%, 0%)" d="M 136.011719 269.972656 L 136.011719 322.804688 L 187.433594 352.476562 L 233.191406 326.078125 L 187.433594 299.644531 Z M 136.011719 269.972656 " fill-opacity="1" fill-rule="evenodd"/><path fill="rgb(0%, 0%, 0%)" d="M 136.011719 217.105469 L 173.355469 238.679688 L 187.433594 246.8125 L 238.855469 217.105469 L 238.855469 157.761719 L 187.433594 128.089844 L 136.011719 157.761719 Z M 136.011719 217.105469 " fill-opacity="1" fill-rule="evenodd"/><path fill="rgb(34.509277%, 74.899292%, 17.248535%)" d="M 187.433594 187.433594 L 238.855469 157.761719 L 187.433594 128.089844 L 136.011719 157.761719 Z M 187.433594 187.433594 " fill-opacity="1" fill-rule="evenodd"/><path fill="rgb(1.179504%, 39.219666%, 17.248535%)" d="M 238.855469 157.761719 L 187.433594 187.433594 L 187.433594 246.8125 L 238.855469 217.105469 Z M 238.855469 157.761719 " fill-opacity="1" fill-rule="evenodd"/><path fill="rgb(0%, 13.328552%, 5.879211%)" d="M 187.65625 197.429688 L 187.65625 188.769531 L 139.796875 188.769531 L 139.796875 215.722656 L 187.65625 215.722656 L 187.65625 197.429688 M 139.796875 215.722656 L 187.65625 244.765625 L 187.65625 215.722656 L 139.796875 215.722656 M 139.796875 159.726562 L 187.65625 159.726562 L 187.65625 188.769531 L 139.796875 188.769531 L 139.796875 159.726562 " fill-opacity="1" fill-rule="nonzero"/><path fill="rgb(0%, 50.19989%, 21.569824%)" d="M 187.65625 188.769531 L 187.65625 215.722656 L 235.519531 215.722656 L 235.519531 188.769531 L 187.65625 188.769531 M 187.65625 159.726562 L 235.519531 159.726562 L 235.519531 188.769531 L 187.65625 188.769531 L 187.65625 159.726562 M 187.65625 244.765625 L 235.519531 215.722656 L 187.65625 215.722656 L 187.65625 244.765625 " fill-opacity="1" fill-rule="nonzero"/><path fill="rgb(49.409485%, 85.099792%, 34.118652%)" d="M 187.65625 188.769531 L 139.796875 159.726562 L 187.65625 130.683594 L 235.519531 159.726562 L 187.65625 188.769531 " fill-opacity="1" fill-rule="nonzero"/></svg>