<?xml version="1.0" encoding="UTF-8"?><svg xmlns="http://www.w3.org/2000/svg" xmlns:xlink="http://www.w3.org/1999/xlink" width="375" zoomAndPan="magnify" viewBox="0 0 375 374.999991" height="374.999991" preserveAspectRatio="xMidYMid meet" version="1.0"><defs><clipPath id="clip-0"><path d="M 1.335938 0 L 373.664062 0 L 373.664062 372.324219 L 1.335938 372.324219 Z M 1.335938 0 " clip-rule="nonzero"/></clipPath></defs><g clip-path="url(#clip-0)"><path fill="rgb(100%, 63.139343%, 0%)" d="M 373.511719 186.261719 C 373.511719 289.011719 290.199219 372.324219 187.402344 372.324219 C 84.648438 372.324219 1.335938 289.011719 1.335938 186.261719 C 1.335938 83.511719 84.648438 0.148438 187.402344 0.148438 C 290.199219 0.148438 373.511719 83.511719 373.511719 186.261719 Z M 373.511719 186.261719 " fill-opacity="1" fill-rule="nonzero"/></g><path fill="rgb(14.118958%, 14.118958%, 14.118958%)" d="M 301.371094 133.910156 C 293.40625 137.417969 284.839844 139.824219 275.824219 140.925781 C 285.039062 135.414062 292.054688 126.695312 295.410156 116.328125 C 286.792969 121.386719 277.277344 125.09375 267.15625 127.097656 C 259.039062 118.429688 247.46875 113.070312 234.691406 113.070312 C 210.144531 113.070312 190.207031 132.960938 190.207031 157.507812 C 190.207031 161.015625 190.605469 164.421875 191.359375 167.675781 C 154.386719 165.824219 121.621094 148.089844 99.679688 121.1875 C 95.871094 127.75 93.667969 135.414062 93.667969 143.53125 C 93.667969 158.960938 101.53125 172.585938 113.457031 180.550781 C 106.140625 180.351562 99.328125 178.347656 93.316406 174.992188 C 93.316406 175.191406 93.316406 175.390625 93.316406 175.542969 C 93.316406 197.085938 108.648438 215.070312 128.988281 219.175781 C 125.230469 220.179688 121.320312 220.730469 117.265625 220.730469 C 114.40625 220.730469 111.601562 220.480469 108.898438 219.929688 C 114.558594 237.613281 130.992188 250.488281 150.429688 250.839844 C 135.25 262.761719 116.0625 269.875 95.222656 269.875 C 91.613281 269.875 88.058594 269.675781 84.601562 269.226562 C 104.289062 281.847656 127.632812 289.214844 152.78125 289.214844 C 234.59375 289.214844 279.328125 221.429688 279.328125 162.667969 C 279.328125 160.761719 279.28125 158.859375 279.179688 156.90625 C 287.894531 150.644531 295.410156 142.828125 301.371094 133.910156 Z M 301.371094 133.910156 " fill-opacity="1" fill-rule="nonzero"/></svg>