<?xml version="1.0" encoding="UTF-8"?><svg xmlns="http://www.w3.org/2000/svg" xmlns:xlink="http://www.w3.org/1999/xlink" width="375" zoomAndPan="magnify" viewBox="0 0 375 374.999991" height="374.999991" preserveAspectRatio="xMidYMid meet" version="1.0"><defs><clipPath id="clip-0"><path d="M 1.351562 0 L 374.402344 0 L 374.402344 373.050781 L 1.351562 373.050781 Z M 1.351562 0 " clip-rule="nonzero"/></clipPath><clipPath id="clip-1"><path d="M 69.664062 85.332031 L 302.824219 85.332031 L 302.824219 290.480469 L 69.664062 290.480469 Z M 69.664062 85.332031 " clip-rule="nonzero"/></clipPath></defs><g clip-path="url(#clip-0)"><path fill="rgb(100%, 63.139343%, 0%)" d="M 374.402344 186.527344 C 374.402344 198.773438 373.195312 210.921875 370.835938 222.917969 C 368.429688 234.914062 364.914062 246.609375 360.195312 257.902344 C 355.527344 269.246094 349.753906 279.988281 342.980469 290.179688 C 336.152344 300.367188 328.421875 309.753906 319.789062 318.4375 C 311.105469 327.074219 301.667969 334.800781 291.527344 341.628906 C 281.339844 348.457031 270.597656 354.179688 259.253906 358.847656 C 247.960938 363.566406 236.265625 367.078125 224.265625 369.488281 C 212.269531 371.847656 200.125 373.050781 187.875 373.050781 C 175.628906 373.050781 163.480469 371.847656 151.484375 369.488281 C 139.488281 367.078125 127.792969 363.566406 116.496094 358.847656 C 105.152344 354.179688 94.410156 348.457031 84.222656 341.628906 C 74.082031 334.800781 64.644531 327.074219 55.960938 318.4375 C 47.328125 309.753906 39.597656 300.367188 32.773438 290.179688 C 25.996094 279.988281 20.222656 269.246094 15.554688 257.902344 C 10.835938 246.609375 7.324219 234.914062 4.914062 222.917969 C 2.554688 210.921875 1.351562 198.773438 1.351562 186.527344 C 1.351562 174.277344 2.554688 162.132812 4.914062 150.132812 C 7.324219 138.136719 10.835938 126.441406 15.554688 115.148438 C 20.222656 103.855469 25.996094 93.0625 32.773438 82.921875 C 39.597656 72.734375 47.328125 63.296875 55.960938 54.613281 C 64.644531 45.980469 74.082031 38.25 84.222656 31.421875 C 94.410156 24.644531 105.152344 18.875 116.496094 14.207031 C 127.792969 9.488281 139.488281 5.972656 151.484375 3.5625 C 163.480469 1.203125 175.628906 0 187.875 0 C 200.125 0 212.269531 1.203125 224.265625 3.5625 C 236.265625 5.972656 247.960938 9.488281 259.253906 14.207031 C 270.597656 18.875 281.339844 24.644531 291.527344 31.421875 C 301.667969 38.25 311.105469 45.980469 319.789062 54.613281 C 328.421875 63.296875 336.152344 72.734375 342.980469 82.921875 C 349.753906 93.0625 355.527344 103.855469 360.195312 115.148438 C 364.914062 126.441406 368.429688 138.136719 370.835938 150.132812 C 373.195312 162.132812 374.402344 174.277344 374.402344 186.527344 Z M 374.402344 186.527344 " fill-opacity="1" fill-rule="nonzero"/></g><g clip-path="url(#clip-1)"><path fill="rgb(14.118958%, 14.118958%, 14.118958%)" d="M 147.417969 282.398438 C 147.417969 287.46875 144.808594 290.480469 141.042969 290.480469 C 139.738281 290.480469 138.234375 290.128906 136.675781 289.324219 L 76.242188 257.851562 C 72.675781 255.996094 69.765625 251.128906 69.765625 247.011719 L 69.765625 92.8125 C 69.765625 88.746094 71.875 86.335938 74.886719 86.335938 C 75.941406 86.335938 77.144531 86.585938 78.398438 87.238281 L 80.507812 88.394531 L 147.167969 123.027344 C 147.269531 123.078125 147.316406 123.230469 147.417969 123.28125 Z M 217.238281 96.074219 L 221.304688 89.148438 C 222.761719 86.738281 225.421875 85.332031 228.132812 85.332031 C 228.785156 85.332031 229.386719 85.433594 230.039062 85.582031 C 230.492188 85.683594 230.992188 85.882812 231.546875 86.136719 L 301.820312 122.675781 C 301.820312 122.675781 301.820312 122.726562 301.820312 122.726562 L 301.871094 122.726562 C 301.917969 122.777344 301.917969 122.828125 301.96875 122.878906 C 302.320312 123.128906 302.472656 123.632812 302.21875 124.03125 L 232.25 242.394531 L 225.121094 254.441406 L 178.738281 161.125 Z M 158.511719 219.855469 L 158.511719 145.515625 L 208.355469 245.804688 L 163.53125 222.464844 Z M 302.722656 282.398438 C 302.722656 287.167969 299.960938 289.878906 295.945312 289.878906 C 294.089844 289.878906 292.03125 289.324219 289.824219 288.222656 L 279.785156 283 L 235.007812 259.660156 L 302.722656 145.164062 Z M 302.722656 282.398438 " fill-opacity="1" fill-rule="nonzero"/></g></svg>