<?xml version="1.0" encoding="UTF-8"?><svg xmlns="http://www.w3.org/2000/svg" xmlns:xlink="http://www.w3.org/1999/xlink" width="375" zoomAndPan="magnify" viewBox="0 0 375 374.999991" height="374.999991" preserveAspectRatio="xMidYMid meet" version="1.0"><defs><clipPath id="clip-0"><path d="M 1.335938 0 L 373.664062 0 L 373.664062 372.324219 L 1.335938 372.324219 Z M 1.335938 0 " clip-rule="nonzero"/></clipPath></defs><g clip-path="url(#clip-0)"><path fill="rgb(100%, 63.139343%, 0%)" d="M 187.5 0 C 84.699219 0 1.335938 83.363281 1.335938 186.164062 C 1.335938 288.964844 84.699219 372.324219 187.5 372.324219 C 290.300781 372.324219 373.664062 288.964844 373.664062 186.164062 C 373.664062 83.363281 290.300781 0 187.5 0 Z M 187.5 0 " fill-opacity="1" fill-rule="nonzero"/></g><path fill="rgb(14.118958%, 14.118958%, 14.118958%)" d="M 278.078125 107.109375 L 244.8125 274.734375 C 244.8125 274.734375 240.203125 286.359375 227.378906 280.796875 L 150.679688 221.984375 L 122.773438 208.457031 L 75.78125 192.675781 C 75.78125 192.675781 68.570312 190.121094 67.867188 184.507812 C 67.167969 178.949219 76.035156 175.894531 76.035156 175.894531 L 262.746094 102.699219 C 262.746094 102.699219 278.078125 95.9375 278.078125 107.109375 " fill-opacity="1" fill-rule="nonzero"/><path fill="rgb(25.099182%, 25.099182%, 25.099182%)" d="M 144.765625 272.832031 C 144.765625 272.832031 142.511719 272.632812 139.757812 263.8125 C 136.953125 254.996094 122.773438 208.457031 122.773438 208.457031 L 235.542969 136.867188 C 235.542969 136.867188 242.058594 132.910156 241.804688 136.867188 C 241.804688 136.867188 242.957031 137.566406 239.503906 140.824219 C 235.996094 144.082031 150.878906 220.578125 150.878906 220.578125 " fill-opacity="1" fill-rule="nonzero"/><path fill="rgb(14.118958%, 14.118958%, 14.118958%)" d="M 180.085938 244.527344 L 149.726562 272.179688 C 149.726562 272.179688 147.371094 273.984375 144.765625 272.832031 L 150.578125 221.429688 " fill-opacity="1" fill-rule="nonzero"/></svg>